<?xml version="1.0" encoding="UTF-8" standalone="no"?><!-- Generator: Gravit.io --><svg xmlns="http://www.w3.org/2000/svg" xmlns:xlink="http://www.w3.org/1999/xlink" style="isolation:isolate" viewBox="0 0 81 81" width="81pt" height="81pt"><defs><clipPath id="_clipPath_XaMuqMRIypq0qMv0TNOKzCO7vzl0Uox7"><rect width="81" height="81"/></clipPath></defs><g clip-path="url(#_clipPath_XaMuqMRIypq0qMv0TNOKzCO7vzl0Uox7)"><path d="M 40.5 0 L 40.5 0 C 62.853 0 81 18.147 81 40.5 L 81 40.5 C 81 62.853 62.853 81 40.5 81 L 40.5 81 C 18.147 81 0 62.853 0 40.5 L 0 40.5 C 0 18.147 18.147 0 40.5 0 Z" style="stroke:none;fill:#C3F7BA;stroke-miterlimit:10;opacity:0.99;"/><g><path d=" M 48.814 50.39 L 49.606 50.239 L 49.908 51.823 L 49.116 51.974 C 47.443 52.295 45.758 52.549 44.065 52.734 C 42.528 52.903 40.982 53.006 39.436 53.04 C 38.009 53.071 36.582 53.04 35.159 52.948 C 33.827 52.859 32.498 52.71 31.178 52.496 C 29.921 52.295 28.671 52.033 27.436 51.712 C 26.24 51.402 25.059 51.035 23.898 50.61 C 22.756 50.191 21.631 49.715 20.532 49.187 C 19.43 48.657 18.354 48.072 17.306 47.437 L 16.618 47.018 C 16.528 45.82 16.132 45.054 16.42 45.13 C 16.421 45.13 17.464 45.647 17.48 45.657 C 17.552 45.7 17.773 45.834 18.144 46.059 C 19.146 46.667 20.176 47.226 21.232 47.734 C 22.284 48.24 23.358 48.695 24.455 49.096 C 25.565 49.503 26.696 49.856 27.841 50.152 C 29.026 50.459 30.225 50.711 31.434 50.906 C 32.704 51.11 33.982 51.255 35.266 51.337 C 36.64 51.428 38.021 51.458 39.4 51.428 C 40.899 51.394 42.399 51.295 43.89 51.132 C 45.541 50.95 47.183 50.702 48.814 50.39 Z " fill="rgb(0,0,0)"/><path d=" M 48.33 29.311 L 47.813 28.842 L 48.955 27.714 L 49.473 28.183 C 50.567 29.174 51.613 30.212 52.607 31.296 C 53.511 32.279 54.364 33.307 55.162 34.374 C 55.897 35.36 56.583 36.381 57.215 37.435 C 57.806 38.423 58.346 39.443 58.829 40.494 C 59.29 41.495 59.699 42.525 60.052 43.579 C 60.394 44.599 60.682 45.641 60.913 46.703 C 61.14 47.749 61.312 48.815 61.427 49.892 C 61.544 50.974 61.602 52.068 61.606 53.172 L 61.606 53.897 C 60.673 54.653 60.166 54.904 60.085 54.658 C 60.085 54.657 60.066 54.095 60.066 54.078 C 60.066 54.003 60.065 53.77 60.064 53.379 C 60.062 52.323 60.005 51.276 59.893 50.24 C 59.782 49.208 59.619 48.189 59.401 47.187 C 59.18 46.171 58.905 45.172 58.577 44.196 C 58.237 43.185 57.846 42.197 57.403 41.233 C 56.937 40.223 56.42 39.241 55.848 38.29 C 55.238 37.271 54.575 36.283 53.864 35.331 C 53.09 34.297 52.263 33.299 51.387 32.345 C 50.417 31.289 49.397 30.277 48.33 29.311 Z " fill="rgb(0,0,0)"/><path d=" M 42.187 39.594 L 41.805 39.1 L 42.791 38.336 L 43.173 38.829 C 43.982 39.871 44.748 40.944 45.47 42.047 C 46.126 43.048 46.74 44.078 47.306 45.132 C 47.828 46.106 48.307 47.101 48.743 48.115 C 49.149 49.065 49.512 50.034 49.828 51.019 C 50.131 51.958 50.388 52.912 50.601 53.876 C 50.806 54.81 50.968 55.753 51.082 56.703 C 51.193 57.638 51.26 58.581 51.281 59.524 C 51.302 60.471 51.277 61.418 51.207 62.364 L 51.159 62.985 C 50.364 63.468 49.943 63.593 49.894 63.368 C 49.894 63.367 49.916 62.883 49.917 62.868 C 49.922 62.804 49.937 62.604 49.962 62.269 C 50.03 61.365 50.054 60.458 50.033 59.552 C 50.013 58.648 49.95 57.748 49.842 56.85 C 49.733 55.942 49.58 55.038 49.383 54.144 C 49.178 53.219 48.931 52.304 48.641 51.401 C 48.336 50.454 47.988 49.521 47.594 48.607 C 47.175 47.627 46.711 46.664 46.206 45.723 C 45.657 44.701 45.062 43.701 44.426 42.73 C 43.722 41.655 42.974 40.609 42.187 39.594 Z " fill="rgb(0,0,0)"/><path d=" M 41.876 37.976 L 42.483 37.849 L 42.648 39.442 L 42.041 39.568 C 40.76 39.837 39.472 40.039 38.181 40.172 C 37.008 40.294 35.832 40.349 34.658 40.335 C 33.575 40.322 32.495 40.248 31.42 40.111 C 30.413 39.981 29.412 39.792 28.42 39.537 C 27.474 39.297 26.538 38.997 25.614 38.639 C 24.72 38.292 23.84 37.889 22.977 37.428 C 22.127 36.974 21.294 36.464 20.483 35.903 C 19.668 35.339 18.876 34.722 18.107 34.055 L 17.166 33.307 C 17.147 32.106 17.4 31.578 17.616 31.662 C 17.616 31.663 18.3 32.272 18.312 32.282 C 18.364 32.327 18.526 32.468 18.799 32.704 C 19.533 33.343 20.292 33.932 21.072 34.472 C 21.849 35.01 22.645 35.498 23.46 35.933 C 24.285 36.374 25.128 36.761 25.984 37.093 C 26.87 37.435 27.77 37.724 28.678 37.956 C 29.633 38.199 30.596 38.383 31.566 38.505 C 32.604 38.638 33.65 38.711 34.696 38.723 C 35.835 38.735 36.976 38.683 38.113 38.565 C 39.372 38.435 40.627 38.238 41.876 37.976 Z " fill="rgb(0,0,0)"/><path d=" M 30.868 38.001 L 30.77 38.639 L 29.213 38.259 L 29.312 37.621 C 29.519 36.273 29.791 34.942 30.128 33.631 C 30.434 32.44 30.804 31.268 31.238 30.123 C 31.639 29.065 32.097 28.031 32.61 27.024 C 33.093 26.081 33.631 25.165 34.226 24.279 C 34.79 23.434 35.409 22.617 36.077 21.834 C 36.724 21.076 37.418 20.35 38.161 19.661 C 38.893 18.983 39.671 18.339 40.49 17.735 C 41.312 17.128 42.177 16.562 43.079 16.035 L 43.674 15.691 C 44.81 16.08 45.295 16.367 45.138 16.549 C 45.138 16.549 44.688 16.831 44.674 16.839 C 44.612 16.875 44.422 16.986 44.102 17.173 C 43.238 17.676 42.411 18.218 41.624 18.799 C 40.839 19.378 40.095 19.992 39.394 20.643 C 38.683 21.302 38.017 21.997 37.398 22.723 C 36.758 23.475 36.164 24.258 35.62 25.07 C 35.049 25.923 34.531 26.804 34.068 27.714 C 33.57 28.687 33.127 29.687 32.74 30.708 C 32.321 31.82 31.961 32.956 31.663 34.111 C 31.335 35.39 31.07 36.688 30.868 38.001 Z " fill="rgb(0,0,0)"/><path d=" M 43.327 38.897 L 43.173 39.442 L 41.805 38.893 L 41.958 38.349 C 42.282 37.197 42.663 36.07 43.102 34.968 C 43.5 33.968 43.953 32.993 44.461 32.05 C 44.931 31.18 45.45 30.338 46.017 29.527 C 46.549 28.768 47.128 28.04 47.756 27.346 C 48.352 26.684 48.994 26.055 49.677 25.462 C 50.339 24.888 51.041 24.348 51.782 23.847 C 52.512 23.355 53.281 22.899 54.083 22.483 C 54.887 22.066 55.726 21.689 56.596 21.353 L 57.168 21.133 C 58.155 21.631 58.565 21.949 58.405 22.087 C 58.404 22.088 57.969 22.272 57.955 22.277 C 57.896 22.3 57.712 22.371 57.405 22.49 C 56.572 22.811 55.77 23.172 54.999 23.572 C 54.231 23.97 53.496 24.405 52.796 24.878 C 52.087 25.357 51.414 25.873 50.781 26.423 C 50.126 26.993 49.51 27.596 48.935 28.232 C 48.333 28.9 47.775 29.6 47.264 30.332 C 46.716 31.115 46.213 31.929 45.76 32.77 C 45.268 33.686 44.827 34.631 44.441 35.601 C 44.014 36.675 43.642 37.775 43.327 38.897 Z " fill="rgb(0,0,0)"/><path d=" M 14.5 40.5 C 14.5 26.15 26.15 14.5 40.5 14.5 C 54.85 14.5 66.5 26.15 66.5 40.5 C 66.5 54.85 54.85 66.5 40.5 66.5 C 26.15 66.5 14.5 54.85 14.5 40.5 Z  M 16.5 40.5 C 16.5 34.14 19.03 28.03 23.53 23.53 C 28.03 19.03 34.14 16.5 40.5 16.5 C 46.86 16.5 52.97 19.03 57.47 23.53 C 61.97 28.03 64.5 34.14 64.5 40.5 C 64.5 46.86 61.97 52.97 57.47 57.47 C 52.97 61.97 46.86 64.5 40.5 64.5 C 34.14 64.5 28.03 61.97 23.53 57.47 C 19.03 52.97 16.5 46.86 16.5 40.5 Z " fill-rule="evenodd" fill="rgb(0,0,0)"/></g></g></svg>