<?xml version="1.0" encoding="UTF-8" standalone="no"?><!-- Generator: Gravit.io --><svg xmlns="http://www.w3.org/2000/svg" xmlns:xlink="http://www.w3.org/1999/xlink" style="isolation:isolate" viewBox="0 0 81 81" width="81pt" height="81pt"><defs><clipPath id="_clipPath_4tjLVdthuyqjaTKTqk0PH8X6jqOmWocZ"><rect width="81" height="81"/></clipPath></defs><g clip-path="url(#_clipPath_4tjLVdthuyqjaTKTqk0PH8X6jqOmWocZ)"><path d="M 40.5 0 L 40.5 0 C 62.853 0 81 18.147 81 40.5 L 81 40.5 C 81 62.853 62.853 81 40.5 81 L 40.5 81 C 18.147 81 0 62.853 0 40.5 L 0 40.5 C 0 18.147 18.147 0 40.5 0 Z" style="stroke:none;fill:#F1DBFF;stroke-miterlimit:10;opacity:0.99;"/><g><path d="M 21.453 19.79 L 59.557 19.79 C 60.591 19.79 61.43 20.63 61.43 21.664 L 61.43 59.336 C 61.43 60.37 60.591 61.21 59.557 61.21 L 21.453 61.21 C 20.419 61.21 19.58 60.37 19.58 59.336 L 19.58 21.664 C 19.58 20.63 20.419 19.79 21.453 19.79 Z" style="stroke:none;fill:#000000;stroke-miterlimit:10;"/><path d="M 21.783 21.08 L 32.247 21.08 C 32.756 21.08 33.17 21.494 33.17 22.003 L 33.17 32.467 C 33.17 32.976 32.756 33.39 32.247 33.39 L 21.783 33.39 C 21.274 33.39 20.86 32.976 20.86 32.467 L 20.86 22.003 C 20.86 21.494 21.274 21.08 21.783 21.08 Z" style="stroke:none;fill:#FFFF00;stroke-miterlimit:10;"/><path d="M 21.783 34.29 L 32.247 34.29 C 32.756 34.29 33.17 34.704 33.17 35.213 L 33.17 45.677 C 33.17 46.186 32.756 46.6 32.247 46.6 L 21.783 46.6 C 21.274 46.6 20.86 46.186 20.86 45.677 L 20.86 35.213 C 20.86 34.704 21.274 34.29 21.783 34.29 Z" style="stroke:none;fill:#FFFFFF;stroke-miterlimit:10;"/><path d="M 21.783 47.5 L 32.247 47.5 C 32.756 47.5 33.17 47.914 33.17 48.423 L 33.17 58.887 C 33.17 59.396 32.756 59.81 32.247 59.81 L 21.783 59.81 C 21.274 59.81 20.86 59.396 20.86 58.887 L 20.86 48.423 C 20.86 47.914 21.274 47.5 21.783 47.5 Z" style="stroke:none;fill:#FFFF00;stroke-miterlimit:10;"/><path d="M 35.353 21.08 L 45.817 21.08 C 46.326 21.08 46.74 21.494 46.74 22.003 L 46.74 32.467 C 46.74 32.976 46.326 33.39 45.817 33.39 L 35.353 33.39 C 34.844 33.39 34.43 32.976 34.43 32.467 L 34.43 22.003 C 34.43 21.494 34.844 21.08 35.353 21.08 Z" style="stroke:none;fill:#FFFFFF;stroke-miterlimit:10;"/><path d="M 35.273 34.29 L 45.728 34.29 C 46.237 34.29 46.65 34.704 46.65 35.213 L 46.65 45.677 C 46.65 46.186 46.237 46.6 45.728 46.6 L 35.273 46.6 C 34.763 46.6 34.35 46.186 34.35 45.677 L 34.35 35.213 C 34.35 34.704 34.763 34.29 35.273 34.29 Z" style="stroke:none;fill:#FFFF00;stroke-miterlimit:10;"/><path d="M 35.273 47.5 L 45.728 47.5 C 46.237 47.5 46.65 47.914 46.65 48.423 L 46.65 58.887 C 46.65 59.396 46.237 59.81 45.728 59.81 L 35.273 59.81 C 34.763 59.81 34.35 59.396 34.35 58.887 L 34.35 48.423 C 34.35 47.914 34.763 47.5 35.273 47.5 Z" style="stroke:none;fill:#FFFFFF;stroke-miterlimit:10;"/><path d="M 48.923 21.08 L 59.387 21.08 C 59.896 21.08 60.31 21.494 60.31 22.003 L 60.31 32.467 C 60.31 32.976 59.896 33.39 59.387 33.39 L 48.923 33.39 C 48.414 33.39 48 32.976 48 32.467 L 48 22.003 C 48 21.494 48.414 21.08 48.923 21.08 Z" style="stroke:none;fill:#FFFF00;stroke-miterlimit:10;"/><path d="M 48.923 34.29 L 59.387 34.29 C 59.896 34.29 60.31 34.704 60.31 35.213 L 60.31 45.677 C 60.31 46.186 59.896 46.6 59.387 46.6 L 48.923 46.6 C 48.414 46.6 48 46.186 48 45.677 L 48 35.213 C 48 34.704 48.414 34.29 48.923 34.29 Z" style="stroke:none;fill:#FFFFFF;stroke-miterlimit:10;"/><path d="M 48.923 47.5 L 59.387 47.5 C 59.896 47.5 60.31 47.914 60.31 48.423 L 60.31 58.887 C 60.31 59.396 59.896 59.81 59.387 59.81 L 48.923 59.81 C 48.414 59.81 48 59.396 48 58.887 L 48 48.423 C 48 47.914 48.414 47.5 48.923 47.5 Z" style="stroke:none;fill:#FFFF00;stroke-miterlimit:10;"/></g></g></svg>